<svg height="1774" width="720" xmlns="http://www.w3.org/2000/svg">
<rect height="1774" fill="#555" width="720"></rect>
<text fill="#7f7" font-family="Courier New" font-size="12" xml:space="preserve">
<tspan x="10" y="26">└─┬ grunt-jscs@3.0.1 </tspan>
<tspan x="10" y="42">  ├── hooker@0.2.3 </tspan>
<tspan x="10" y="58">  ├─┬ jscs@3.0.7 </tspan>
<tspan x="10" y="74">  │ ├─┬ chalk@1.1.3 </tspan>
<tspan x="10" y="90">  │ │ ├── ansi-styles@2.2.1 </tspan>
<tspan x="10" y="106">  │ │ ├── escape-string-regexp@1.0.5 </tspan>
<tspan x="10" y="122">  │ │ ├─┬ has-ansi@2.0.0 </tspan>
<tspan x="10" y="138">  │ │ │ └── ansi-regex@2.1.1 </tspan>
<tspan x="10" y="154">  │ │ ├── strip-ansi@3.0.1 </tspan>
<tspan x="10" y="170">  │ │ └── supports-color@2.0.0 </tspan>
<tspan x="10" y="186">  │ ├─┬ cli-table@0.3.1 </tspan>
<tspan x="10" y="202">  │ │ └── colors@1.0.3 </tspan>
<tspan x="10" y="218">  │ ├─┬ commander@2.9.0 </tspan>
<tspan x="10" y="234">  │ │ └── graceful-readlink@1.0.1 </tspan>
<tspan x="10" y="250">  │ ├─┬ cst@0.4.9 </tspan>
<tspan x="10" y="266">  │ │ ├─┬ babel-runtime@6.23.0 </tspan>
<tspan x="10" y="282">  │ │ │ ├── core-js@2.4.1 </tspan>
<tspan x="10" y="298">  │ │ │ └── regenerator-runtime@0.10.3 </tspan>
<tspan x="10" y="314">  │ │ ├── babylon@6.16.1 </tspan>
<tspan x="10" y="330">  │ │ └─┬ source-map-support@0.4.14 </tspan>
<tspan x="10" y="346">  │ │   └── source-map@0.5.6 </tspan>
<tspan x="10" y="362">  │ ├── estraverse@4.2.0 </tspan>
<tspan x="10" y="378">  │ ├── exit@0.1.2 </tspan>
<tspan x="10" y="394">  │ ├─┬ glob@5.0.15 </tspan>
<tspan x="10" y="410">  │ │ ├─┬ inflight@1.0.6 </tspan>
<tspan x="10" y="426">  │ │ │ └── wrappy@1.0.2 </tspan>
<tspan x="10" y="442">  │ │ ├── inherits@2.0.3 </tspan>
<tspan x="10" y="458">  │ │ ├── once@1.4.0 </tspan>
<tspan x="10" y="474">  │ │ └── path-is-absolute@1.0.1 </tspan>
<tspan x="10" y="490">  │ ├─┬ htmlparser2@3.8.3 </tspan>
<tspan x="10" y="506">  │ │ ├── domelementtype@1.3.0 </tspan>
<tspan x="10" y="522">  │ │ ├── domhandler@2.3.0 </tspan>
<tspan x="10" y="538">  │ │ ├─┬ domutils@1.5.1 </tspan>
<tspan x="10" y="554">  │ │ │ └─┬ dom-serializer@0.1.0 </tspan>
<tspan x="10" y="570">  │ │ │   ├── domelementtype@1.1.3 </tspan>
<tspan x="10" y="586">  │ │ │   └── entities@1.1.1 </tspan>
<tspan x="10" y="602">  │ │ ├── entities@1.0.0 </tspan>
<tspan x="10" y="618">  │ │ └─┬ readable-stream@1.1.14 </tspan>
<tspan x="10" y="634">  │ │   ├── core-util-is@1.0.2 </tspan>
<tspan x="10" y="650">  │ │   ├── isarray@0.0.1 </tspan>
<tspan x="10" y="666">  │ │   └── string_decoder@0.10.31 </tspan>
<tspan x="10" y="682">  │ ├─┬ js-yaml@3.4.6 </tspan>
<tspan x="10" y="698">  │ │ ├─┬ argparse@1.0.9 </tspan>
<tspan x="10" y="714">  │ │ │ └── sprintf-js@1.0.3 </tspan>
<tspan x="10" y="730">  │ │ ├── esprima@2.7.3 </tspan>
<tspan x="10" y="746">  │ │ └── inherit@2.2.6 </tspan>
<tspan x="10" y="762">  │ ├─┬ jscs-jsdoc@2.0.0 </tspan>
<tspan x="10" y="778">  │ │ ├─┬ comment-parser@0.3.1 </tspan>
<tspan x="10" y="794">  │ │ │ └─┬ readable-stream@2.2.6 </tspan>
<tspan x="10" y="810">  │ │ │   ├── buffer-shims@1.0.0 </tspan>
<tspan x="10" y="826">  │ │ │   ├── isarray@1.0.0 </tspan>
<tspan x="10" y="842">  │ │ │   ├── process-nextick-args@1.0.7 </tspan>
<tspan x="10" y="858">  │ │ │   └── util-deprecate@1.0.2 </tspan>
<tspan x="10" y="874">  │ │ └─┬ jsdoctypeparser@1.2.0 </tspan>
<tspan x="10" y="890">  │ │   └── lodash@3.10.1 </tspan>
<tspan x="10" y="906">  │ ├── jscs-preset-wikimedia@1.0.0 </tspan>
<tspan x="10" y="922">  │ ├─┬ jsonlint@1.6.2 </tspan>
<tspan x="10" y="938">  │ │ ├── JSV@4.0.2 </tspan>
<tspan x="10" y="954">  │ │ └─┬ nomnom@1.8.1 </tspan>
<tspan x="10" y="970">  │ │   ├─┬ chalk@0.4.0 </tspan>
<tspan x="10" y="986">  │ │   │ ├── ansi-styles@1.0.0 </tspan>
<tspan x="10" y="1002">  │ │   │ ├── has-color@0.1.7 </tspan>
<tspan x="10" y="1018">  │ │   │ └── strip-ansi@0.1.1 </tspan>
<tspan x="10" y="1034">  │ │   └── underscore@1.6.0 </tspan>
<tspan x="10" y="1050">  │ ├── lodash@3.10.1 </tspan>
<tspan x="10" y="1066">  │ ├─┬ minimatch@3.0.3 </tspan>
<tspan x="10" y="1082">  │ │ └─┬ brace-expansion@1.1.6 </tspan>
<tspan x="10" y="1098">  │ │   ├── balanced-match@0.4.2 </tspan>
<tspan x="10" y="1114">  │ │   └── concat-map@0.0.1 </tspan>
<tspan x="10" y="1130">  │ ├── natural-compare@1.2.2 </tspan>
<tspan x="10" y="1146">  │ ├── pathval@0.1.1 </tspan>
<tspan x="10" y="1162">  │ ├─┬ prompt@0.2.14 </tspan>
<tspan x="10" y="1178">  │ │ ├── pkginfo@0.4.0 </tspan>
<tspan x="10" y="1194">  │ │ ├─┬ read@1.0.7 </tspan>
<tspan x="10" y="1210">  │ │ │ └── mute-stream@0.0.7 </tspan>
<tspan x="10" y="1226">  │ │ ├── revalidator@0.1.8 </tspan>
<tspan x="10" y="1242">  │ │ ├─┬ utile@0.2.1 </tspan>
<tspan x="10" y="1258">  │ │ │ ├── async@0.2.10 </tspan>
<tspan x="10" y="1274">  │ │ │ ├── deep-equal@1.0.1 </tspan>
<tspan x="10" y="1290">  │ │ │ ├── i@0.3.5 </tspan>
<tspan x="10" y="1306">  │ │ │ ├─┬ mkdirp@0.5.1 </tspan>
<tspan x="10" y="1322">  │ │ │ │ └── minimist@0.0.8 </tspan>
<tspan x="10" y="1338">  │ │ │ ├── ncp@0.4.2 </tspan>
<tspan x="10" y="1354">  │ │ │ └─┬ rimraf@2.6.1 </tspan>
<tspan x="10" y="1370">  │ │ │   └── glob@7.1.1 </tspan>
<tspan x="10" y="1386">  │ │ └─┬ winston@0.8.3 </tspan>
<tspan x="10" y="1402">  │ │   ├── colors@0.6.2 </tspan>
<tspan x="10" y="1418">  │ │   ├── cycle@1.0.3 </tspan>
<tspan x="10" y="1434">  │ │   ├── eyes@0.1.8 </tspan>
<tspan x="10" y="1450">  │ │   ├── isstream@0.1.2 </tspan>
<tspan x="10" y="1466">  │ │   ├── pkginfo@0.3.1 </tspan>
<tspan x="10" y="1482">  │ │   └── stack-trace@0.0.9 </tspan>
<tspan x="10" y="1498">  │ ├── reserved-words@0.1.1 </tspan>
<tspan x="10" y="1514">  │ ├─┬ resolve@1.3.2 </tspan>
<tspan x="10" y="1530">  │ │ └── path-parse@1.0.5 </tspan>
<tspan x="10" y="1546">  │ ├─┬ strip-bom@2.0.0 </tspan>
<tspan x="10" y="1562">  │ │ └── is-utf8@0.2.1 </tspan>
<tspan x="10" y="1578">  │ ├── strip-json-comments@1.0.4 </tspan>
<tspan x="10" y="1594">  │ ├── to-double-quotes@2.0.0 </tspan>
<tspan x="10" y="1610">  │ ├── to-single-quotes@2.0.1 </tspan>
<tspan x="10" y="1626">  │ ├─┬ vow-fs@0.3.6 </tspan>
<tspan x="10" y="1642">  │ │ ├─┬ glob@7.1.1 </tspan>
<tspan x="10" y="1658">  │ │ │ └── fs.realpath@1.0.0 </tspan>
<tspan x="10" y="1674">  │ │ ├── uuid@2.0.3 </tspan>
<tspan x="10" y="1690">  │ │ └── vow-queue@0.4.2 </tspan>
<tspan x="10" y="1706">  │ └─┬ xmlbuilder@3.1.0 </tspan>
<tspan x="10" y="1722">  │   └── lodash@3.10.1 </tspan>
<tspan x="10" y="1738">  ├── lodash@4.6.1 </tspan>
<tspan x="10" y="1754">  └── vow@0.4.15</tspan>
</text>
</svg>
